<?xml version="1.0" encoding="utf-8"?>
<svg version="1.1" x="0px" y="0px" viewBox="-21.14 -5.349 103.143 106.273" enable-background="new 0 0 100 100" xmlns="http://www.w3.org/2000/svg">
  <text x="0" y="115" fill="#000000" font-size="5px" font-weight="bold" font-family="'Helvetica Neue', Helvetica, Arial-Unicode, Arial, Sans-serif" style="white-space: pre;">Created by Anusha Narvekar</text>
  <text x="0" y="120" fill="#000000" font-size="5px" font-weight="bold" font-family="'Helvetica Neue', Helvetica, Arial-Unicode, Arial, Sans-serif" style="white-space: pre;">from the Noun Project</text>
  <path fill-rule="evenodd" clip-rule="evenodd" d="M 57.286 90.604 L 23.353 99.064 C 20.047 99.889 16.698 97.875 15.873 94.568 L -4.531 12.73 C -5.357 9.424 -3.343 6.074 -0.037 5.249 L 33.897 -3.211 C 37.203 -4.035 40.553 -2.023 41.378 1.283 L 61.783 83.122 C 62.606 86.429 60.593 89.779 57.286 90.604 Z M 39.822 92.837 C 42.027 92.286 43.368 90.053 42.819 87.851 C 42.269 85.645 40.036 84.303 37.832 84.852 C 35.627 85.403 34.286 87.636 34.835 89.84 C 35.384 92.044 37.617 93.386 39.822 92.837 Z M 10.189 8 C 9.638 8.138 9.304 8.695 9.441 9.246 C 9.578 9.798 10.136 10.134 10.688 9.996 C 11.237 9.859 11.573 9.301 11.436 8.749 C 11.299 8.198 10.74 7.863 10.189 8 Z M 17.179 2.018 C 16.628 2.155 16.292 2.713 16.43 3.264 C 16.567 3.814 17.125 4.151 17.676 4.014 C 18.226 3.876 18.563 3.318 18.425 2.766 C 18.287 2.215 17.729 1.881 17.179 2.018 Z M 22.166 5.014 L 14.181 7.005 C 13.63 7.142 13.295 7.7 13.433 8.252 C 13.57 8.802 14.128 9.138 14.679 9.001 L 22.663 7.01 C 23.214 6.873 23.55 6.315 23.412 5.762 C 23.275 5.211 22.718 4.877 22.166 5.014 Z M 39.378 6.023 L -0.542 15.977 L 17.374 87.834 L 57.295 77.88 L 39.379 6.022 L 39.378 6.023 Z M 38.08 85.851 C 39.734 85.439 41.409 86.445 41.822 88.099 C 42.234 89.752 41.227 91.427 39.574 91.84 C 37.92 92.252 36.244 91.244 35.832 89.592 C 35.42 87.937 36.427 86.264 38.08 85.851 Z" style="transform-origin: 28.625px 47.927px;"/>
  <path d="M 46.983 -3.998 C 45.576 -5.29 43.962 -6.254 42.108 -6.254 C 40.255 -6.254 38.641 -5.29 37.233 -3.998 C 35.486 -2.394 35.353 -0.633 35.508 1.315 L 38.538 34.953 C 38.712 37.11 40.057 38.727 42.108 38.727 C 44.16 38.727 45.506 37.11 45.678 34.953 L 48.708 1.315 C 48.864 -0.633 48.732 -2.394 46.983 -3.998 Z" style="fill-rule: nonzero; paint-order: stroke; fill: none; stroke: rgb(77, 77, 77); stroke-width: 1.188px; transform-origin: 42.108px 16.237px;" transform="matrix(0.862529, 0.506007, -0.506007, 0.862529, -0.000001, 0.000003)"/>
  <path d="M 60.737 3.565 C 59.33 2.273 57.716 1.309 55.862 1.309 C 54.009 1.309 52.395 2.273 50.987 3.565 C 49.24 5.169 49.107 6.93 49.262 8.878 L 52.292 42.516 C 52.466 44.673 53.811 46.29 55.862 46.29 C 57.914 46.29 59.26 44.673 59.432 42.516 L 62.462 8.878 C 62.618 6.93 62.486 5.169 60.737 3.565 Z" style="fill-rule: nonzero; paint-order: stroke; fill: none; stroke: rgb(77, 77, 77); stroke-width: 1.188px; transform-origin: 55.862px 23.8px;" transform="matrix(0.804912, 0.593394, -0.593394, 0.804912, 0.000002, -0.000004)"/>
  <circle cx="124.822" cy="77.613" r="7.122" style="paint-order: stroke markers; fill: none; stroke: rgb(77, 77, 77); stroke-width: 1.188px; transform-origin: 124.822px 77.613px;" transform="matrix(0.546624, 0.402981, -0.39913, 0.541402, -97.578011, -35.628109)"/>
  <circle cx="124.822" cy="77.613" r="7.122" style="paint-order: stroke markers; fill: none; stroke: rgb(77, 77, 77); stroke-width: 1.188px; transform-origin: 124.822px 77.613px;" transform="matrix(0.546624, 0.402981, -0.39913, 0.541402, -85.211586, -28.949329)"/>
</svg>