<svg xmlns="http://www.w3.org/2000/svg" xmlns:xlink="http://www.w3.org/1999/xlink" version="1.1" x="0px" y="0px" viewBox="0 0 100 125" enable-background="new 0 0 100 100" xml:space="preserve"><path fill-rule="evenodd" clip-rule="evenodd" d="M67.485,98.344H32.514c-3.408,0-6.171-2.764-6.171-6.172V7.828  c0-3.408,2.763-6.171,6.171-6.171h34.972c3.408,0,6.172,2.763,6.172,6.171v84.344C73.657,95.58,70.894,98.344,67.485,98.344z   M50,96.285c2.272,0,4.114-1.842,4.114-4.113c0-2.273-1.842-4.115-4.114-4.115s-4.114,1.842-4.114,4.115  C45.886,94.443,47.728,96.285,50,96.285z M41.771,6.8c-0.568,0-1.028,0.46-1.028,1.028c0,0.568,0.46,1.029,1.028,1.029  c0.567,0,1.028-0.46,1.028-1.029C42.8,7.26,42.339,6.8,41.771,6.8z M50,2.686c-0.568,0-1.028,0.46-1.028,1.028  c0,0.568,0.46,1.029,1.028,1.029c0.567,0,1.028-0.46,1.028-1.029C51.028,3.146,50.567,2.686,50,2.686z M54.114,6.8h-8.229  c-0.568,0-1.028,0.46-1.028,1.028c0,0.568,0.46,1.029,1.028,1.029h8.229c0.568,0,1.028-0.46,1.028-1.029  C55.143,7.26,54.683,6.8,54.114,6.8z M70.571,11.943H29.429V86h41.143V11.943z M50,89.086c1.704,0,3.086,1.381,3.086,3.086  c0,1.703-1.382,3.086-3.086,3.086s-3.086-1.383-3.086-3.086C46.914,90.467,48.296,89.086,50,89.086z"/><text x="0" y="115" fill="#000000" font-size="5px" font-weight="bold" font-family="'Helvetica Neue', Helvetica, Arial-Unicode, Arial, Sans-serif">Created by Anusha Narvekar</text><text x="0" y="120" fill="#000000" font-size="5px" font-weight="bold" font-family="'Helvetica Neue', Helvetica, Arial-Unicode, Arial, Sans-serif">from the Noun Project</text></svg>