<?xml version="1.0" encoding="utf-8"?>
<svg version="1.1" x="0px" y="0px" viewBox="-21.14 -5.349 103.143 106.273" enable-background="new 0 0 100 100" xmlns="http://www.w3.org/2000/svg">
  <defs>
    <linearGradient gradientUnits="userSpaceOnUse" x1="105.782" y1="-8.869" x2="105.782" y2="158.595" id="gradient-0" spreadMethod="pad">
      <stop offset="0" style="stop-color: rgb(100% 0.7843% 0.7843%)"/>
      <stop offset="1" style="stop-color: rgb(64.067% 0% 0%)"/>
    </linearGradient>
  </defs>
  <path fill-rule="evenodd" clip-rule="evenodd" d="M 55.946 90.493 L 22.013 98.953 C 18.707 99.778 15.358 97.764 14.533 94.457 L -5.871 12.619 C -6.697 9.313 -4.683 5.963 -1.377 5.138 L 32.557 -3.322 C 35.863 -4.146 39.213 -2.134 40.038 1.172 L 60.443 83.011 C 61.266 86.318 59.253 89.668 55.946 90.493 Z M 38.482 92.726 C 40.687 92.175 42.028 89.942 41.479 87.74 C 40.929 85.534 38.696 84.192 36.492 84.741 C 34.287 85.292 32.946 87.525 33.495 89.729 C 34.044 91.933 36.277 93.275 38.482 92.726 Z M 8.849 7.889 C 8.298 8.027 7.964 8.584 8.101 9.135 C 8.238 9.687 8.796 10.023 9.348 9.885 C 9.897 9.748 10.233 9.19 10.096 8.638 C 9.959 8.087 9.4 7.752 8.849 7.889 Z M 15.839 1.907 C 15.288 2.044 14.952 2.602 15.09 3.153 C 15.227 3.703 15.785 4.04 16.336 3.903 C 16.886 3.765 17.223 3.207 17.085 2.655 C 16.947 2.104 16.389 1.77 15.839 1.907 Z M 20.826 4.903 L 12.841 6.894 C 12.29 7.031 11.955 7.589 12.093 8.141 C 12.23 8.691 12.788 9.027 13.339 8.89 L 21.323 6.899 C 21.874 6.762 22.21 6.204 22.072 5.651 C 21.935 5.1 21.378 4.766 20.826 4.903 Z M 38.038 5.912 L -1.882 15.866 L 16.034 87.723 L 55.955 77.769 L 38.039 5.911 L 38.038 5.912 Z M 36.74 85.74 C 38.394 85.328 40.069 86.334 40.482 87.988 C 40.894 89.641 39.887 91.316 38.234 91.729 C 36.58 92.141 34.904 91.133 34.492 89.481 C 34.08 87.826 35.087 86.153 36.74 85.74 Z" style="transform-origin: 27.285px 47.816px;"/>
  <text x="0" y="115" fill="#000000" font-size="5px" font-weight="bold" font-family="'Helvetica Neue', Helvetica, Arial-Unicode, Arial, Sans-serif" style="white-space: pre;">Created by Anusha Narvekar</text>
  <text x="0" y="120" fill="#000000" font-size="5px" font-weight="bold" font-family="'Helvetica Neue', Helvetica, Arial-Unicode, Arial, Sans-serif" style="white-space: pre;">from the Noun Project</text>
  <text id="text2996" style="fill: url('#gradient-0'); fill-opacity: 0; font-family: Arial; animation: meu_hover; font-size: 150px; font-weight: 700; line-height: 180px; paint-order: stroke; stroke: rgb(77, 77, 77); stroke-linecap: round; stroke-linejoin: round; stroke-miterlimit: 2.42; stroke-width: 2.62952px; white-space: pre; transform-box: fill-box; transform-origin: 45.8126px 83.8076px;" transform="matrix(0.426237, 0.172229, -0.166371, 0.411743, -67.586525, -53.172367)" x="59.969" y="126.861">?</text>
</svg>