<?xml version="1.0" encoding="utf-8"?>
<!-- Svg Vector Icons : http://www.onlinewebfonts.com/icon -->
<!DOCTYPE svg PUBLIC "-//W3C//DTD SVG 1.1//EN" "http://www.w3.org/Graphics/SVG/1.1/DTD/svg11.dtd">
<svg version="1.1" xmlns="http://www.w3.org/2000/svg" xmlns:xlink="http://www.w3.org/1999/xlink" x="0px" y="0px" viewBox="0 0 256 256" enable-background="new 0 0 256 256" xml:space="preserve">
<metadata> Svg Vector Icons : http://www.onlinewebfonts.com/icon </metadata>
<g><g><g><path fill="#000000" d="M118.7,10.5c-18.5,2-36.8,10-50.7,22.4C56.6,43,47.5,56.4,42.6,70.5c-9.4,27.2-5.8,55.2,10.8,83.1c7.2,12.1,16.8,24.2,37.2,47c17.1,19.2,29.4,34.3,34.7,42.8c2.2,3.4,3.1,3.4,5.4-0.1c2.5-3.9,12.6-17.2,18.1-23.7c2.9-3.4,10.6-12.3,17.3-19.9c18.4-20.7,25.3-29.2,32.6-40.2c22.4-33.5,25.9-68.5,9.9-99.9c-9-17.6-22.5-31-40.1-39.9C152.8,11.9,135.8,8.7,118.7,10.5z M131.6,47.3c7.1,4.4,11.3,24.9,8.4,41.6c-1.8,10.6-8.7,34.7-10.4,36.4c-0.9,1-2.4,1-3.3,0c-1.1-1.1-5.4-14.4-7.9-24.6c-3.1-12.8-3.9-20-3.2-28.8c1-12.2,4.4-21.5,9.1-24.6C126.2,46.1,129.6,46.1,131.6,47.3z M131,132c2.7,0.7,5.8,3.3,7.1,5.9c1.3,2.6,1.6,7,0.5,9.5c-1.9,4.4-6.8,7.5-11.4,7c-6.4-0.6-10.5-5.2-10.5-11.6C116.7,135.4,123.9,130,131,132z"/></g></g></g>
</svg>