<?xml version="1.0" encoding="utf-8"?>
<svg version="1.1" x="0px" y="0px" viewBox="0 0 256 256" enable-background="new 0 0 256 256" xmlns="http://www.w3.org/2000/svg" xmlns:bx="https://boxy-svg.com">
  <g>
    <g>
      <g>
        <path d="M118.7,10.5c-18.5,2-36.8,10-50.7,22.4C56.6,43,47.5,56.4,42.6,70.5c-9.4,27.2-5.8,55.2,10.8,83.1c7.2,12.1,16.8,24.2,37.2,47c17.1,19.2,29.4,34.3,34.7,42.8c2.2,3.4,3.1,3.4,5.4-0.1c2.5-3.9,12.6-17.2,18.1-23.7c2.9-3.4,10.6-12.3,17.3-19.9c18.4-20.7,25.3-29.2,32.6-40.2c22.4-33.5,25.9-68.5,9.9-99.9c-9-17.6-22.5-31-40.1-39.9C152.8,11.9,135.8,8.7,118.7,10.5z M131.6,47.3c7.1,4.4,11.3,24.9,8.4,41.6c-1.8,10.6-8.7,34.7-10.4,36.4c-0.9,1-2.4,1-3.3,0c-1.1-1.1-5.4-14.4-7.9-24.6c-3.1-12.8-3.9-20-3.2-28.8c1-12.2,4.4-21.5,9.1-24.6C126.2,46.1,129.6,46.1,131.6,47.3z M131,132c2.7,0.7,5.8,3.3,7.1,5.9c1.3,2.6,1.6,7,0.5,9.5c-1.9,4.4-6.8,7.5-11.4,7c-6.4-0.6-10.5-5.2-10.5-11.6C116.7,135.4,123.9,130,131,132z" style="fill: rgb(204, 204, 204);"/>
        <path style="stroke: rgb(0, 0, 0); fill: rgb(1, 1, 1);" d="M 125.321 46.234 L 123.94916666666667 47.60566666666667 C 122.57733333333333 48.97733333333334 119.83366666666666 51.720666666666666 117.78816666666667 57.54416666666666 C 115.74266666666666 63.36766666666667 114.39533333333334 72.27133333333333 116.03183333333334 86.24683333333333 C 117.66833333333334 100.22233333333334 122.28866666666666 119.26966666666668 125.87416666666667 124.2695 C 129.45966666666666 129.26933333333332 132.01033333333334 120.22166666666668 134.60916666666665 110.52416666666666 C 137.208 100.82666666666667 139.85500000000002 90.47933333333333 140.52866666666668 81.19066666666667 C 141.20233333333334 71.902 139.90266666666668 63.672000000000004 138.04983333333334 58.13733333333332 C 136.197 52.602666666666664 133.791 49.76333333333333 132.588 48.34366666666667 L 131.385 46.924" bx:d="M 125.321 46.234 U 117.09 54.464 U 113.048 81.175 U 126.909 138.317 U 134.561 111.174 U 142.502 80.132 U 138.603 55.442 U 131.385 46.924 1@e168aaef"/>
        <path style="stroke: rgb(0, 0, 0); fill: rgb(5, 5, 5);" d="M 124.199 132.462 L 122.943 133.37333333333333 C 121.687 134.28466666666665 119.175 136.10733333333334 118.07900000000001 138.8655 C 116.983 141.62366666666665 117.303 145.31733333333332 118.04183333333333 147.70583333333332 C 118.78066666666666 150.09433333333334 119.93833333333333 151.17766666666668 121.45283333333334 152.15033333333332 C 122.96733333333333 153.12300000000002 124.83866666666665 153.985 126.72233333333332 154.28066666666666 C 128.606 154.57633333333334 130.50199999999998 154.30566666666667 132.18883333333335 153.6285 C 133.87566666666666 152.95133333333334 135.35333333333332 151.86766666666665 136.51083333333332 150.57483333333332 C 137.66833333333332 149.282 138.50566666666666 147.78 138.86283333333333 146.0438333333333 C 139.22 144.30766666666668 139.09699999999998 142.3373333333333 138.703 140.66266666666667 C 138.309 138.98799999999997 137.644 137.609 136.85600000000002 136.5378333333333 C 136.068 135.46666666666667 135.157 134.70333333333335 134.20883333333333 134.03833333333333 C 133.26066666666668 133.37333333333333 132.27533333333335 132.80666666666667 131.24099999999999 132.49883333333335 C 130.20666666666668 132.191 129.12333333333333 132.142 127.95366666666666 132.20366666666666 C 126.78399999999999 132.26533333333333 125.528 132.43766666666667 124.90000000000002 132.52383333333333 L 124.272 132.61" bx:d="M 124.199 132.462 U 116.663 137.93 U 117.623 149.011 U 121.096 152.261 U 126.71 154.847 U 132.398 154.035 U 136.831 150.784 U 139.343 146.278 U 138.974 140.367 U 136.979 136.23 U 134.246 133.94 U 131.29 132.24 U 128.04 132.093 U 124.272 132.61 1@97e840d6"/>
        <path style="stroke: rgb(0, 0, 0); fill: rgb(11, 11, 11);" d="M 124.548 46.72 L 125.14566666666667 46.397166666666664 C 125.74333333333334 46.074333333333335 126.93866666666666 45.428666666666665 127.75150000000001 45.2015 C 128.56433333333334 44.974333333333334 128.9946666666667 45.165666666666674 129.5565 45.52433333333334 C 130.11833333333334 45.883 130.81166666666667 46.409 131.15833333333333 46.672000000000004 L 131.505 46.935" bx:d="M 124.548 46.72 U 128.134 44.783 U 129.425 45.357 U 131.505 46.935 1@ef23d47f"/>
      </g>
    </g>
  </g>
</svg>